<svg xmlns="http://www.w3.org/2000/svg" width="320" height="400" viewBox="0 0 320 400">
  <defs>
    <linearGradient id="sky" x1="0" y1="0" x2="0" y2="1"><stop offset="0" stop-color="#28365e"/><stop offset="1" stop-color="#0d1430"/></linearGradient>
    <radialGradient id="moonGlow" cx="50%" cy="50%" r="50%"><stop offset="0" stop-color="#fbf6e0" stop-opacity="0.5"/><stop offset="1" stop-color="#fbf6e0" stop-opacity="0"/></radialGradient>
    <radialGradient id="cGlow" cx="50%" cy="50%" r="50%"><stop offset="0" stop-color="#ffce79" stop-opacity="0.6"/><stop offset="0.5" stop-color="#e9a23f" stop-opacity="0.2"/><stop offset="1" stop-color="#e9a23f" stop-opacity="0"/></radialGradient>
    <linearGradient id="wood" x1="0" y1="0" x2="0" y2="1"><stop offset="0" stop-color="#6a4527"/><stop offset="1" stop-color="#3c2614"/></linearGradient>
  </defs>

  <path d="M86 232 L86 150 A74 74 0 0 1 234 150 L234 232 Z" fill="#2a2114"/>
  <path d="M96 232 L96 152 A64 64 0 0 1 224 152 L224 232 Z" fill="url(#sky)"/>
  <circle cx="196" cy="120" r="60" fill="url(#moonGlow)"/>
  <circle cx="196" cy="120" r="16" fill="#ece7d1"/><circle cx="191" cy="115" r="3" fill="#d8d2bb"/><circle cx="201" cy="125" r="2.4" fill="#d8d2bb"/>
  <g fill="#eef0f8"><circle cx="120" cy="130" r="1.4"/><circle cx="140" cy="100" r="1"/><circle cx="160" cy="160" r="1.3"/><circle cx="210" cy="180" r="1.1"/><circle cx="120" cy="186" r="1.2"/><circle cx="176" cy="110" r="1"/></g>
  <path d="M86 232 L86 150 A74 74 0 0 1 234 150 L234 232" fill="none" stroke="#5a4a33" stroke-width="8"/>
  <path d="M86 150 A74 74 0 0 1 234 150" fill="none" stroke="#6f5b3c" stroke-width="2" opacity="0.7"/>
  <rect x="78" y="232" width="164" height="12" rx="2" fill="#5a4a33"/>

  <rect x="40" y="300" width="244" height="14" rx="2" fill="url(#wood)"/>
  <rect x="40" y="314" width="244" height="6" fill="#2e1c0e"/>

  <circle cx="92" cy="278" r="64" fill="url(#cGlow)"/>
  <rect x="84" y="272" width="16" height="28" rx="2" fill="#ece0c4"/><rect x="84" y="272" width="16" height="5" rx="2" fill="#fbf3dd"/>
  <rect x="91" y="262" width="2" height="8" fill="#3a2a16"/>
  <path d="M92 246 C86 256 88 266 92 270 C96 266 98 256 92 246 Z" fill="#ffd25e"/>
  <path d="M92 252 C89 258 90 265 92 268 C94 265 95 258 92 252 Z" fill="#ff9a3c"/>

  <ellipse cx="138" cy="288" rx="13" ry="14" fill="#d8d2c2"/><rect x="130" y="290" width="16" height="12" rx="4" fill="#d8d2c2"/>
  <circle cx="133" cy="286" r="3" fill="#2a2018"/><circle cx="143" cy="286" r="3" fill="#2a2018"/>

  <rect x="176" y="276" width="20" height="26" rx="6" fill="#1f5e5a"/><rect x="176" y="288" width="20" height="14" rx="6" fill="#2aa39a"/><rect x="181" y="266" width="10" height="11" fill="#2c6e69"/><rect x="179" y="262" width="14" height="6" rx="2" fill="#6a4a2a"/>
  <rect x="204" y="272" width="18" height="30" rx="6" fill="#6e2c59"/><rect x="204" y="286" width="18" height="16" rx="6" fill="#b0468a"/><rect x="209" y="262" width="9" height="11" fill="#7a3361"/><rect x="207" y="258" width="13" height="6" rx="2" fill="#6a4a2a"/>

  <rect x="234" y="290" width="50" height="11" rx="1.5" fill="#6e2b2b"/><rect x="234" y="288" width="50" height="3" fill="#8a3a3a"/>
  <rect x="239" y="279" width="42" height="11" rx="1.5" fill="#3b5a32"/><rect x="239" y="277" width="42" height="3" fill="#4d7140"/>
</svg>
